<?xml version="1.0" encoding="UTF-8"?>
<svg xmlns="http://www.w3.org/2000/svg" version="1.1" viewBox="0 0 1703.5 635.63">
  <!-- Generator: Adobe Illustrator 30.1.0, SVG Export Plug-In . SVG Version: 2.1.1 Build 136)  -->
  <defs>
    <style>
      .st0, .st1 {
        font-family: Courier, Courier;
        font-size: 263.84px;
      }

      .st2, .st3, .st4 {
        fill: #292b47;
      }

      .st1, .st5 {
        fill: #71daa3;
      }

      .st6 {
        fill: #6f6bf5;
      }

      .st7, .st8 {
        fill: #a077f5;
      }

      .st3, .st4, .st9, .st10 {
        font-family: BrushScriptMT, 'Brush Script MT';
      }

      .st3, .st9 {
        font-size: 422.88px;
      }

      .st4, .st10 {
        font-size: 812.02px;
      }

      .st11, .st9, .st10 {
        fill: #fff;
      }

      .st12 {
        fill: #6a97f6;
      }

      .st13 {
        fill: #6b68f5;
      }

      .st14 {
        display: none;
      }

      .st8 {
        font-family: Arial-Black, 'Arial Black';
        font-size: 78.1px;
        font-weight: 800;
      }
    </style>
  </defs>
  <g id="Layer_3" class="st14">
    <text class="st4" transform="translate(65.42 575.32)"><tspan x="0" y="0">D</tspan></text>
    <text class="st8" transform="translate(203.97 482.02)"><tspan x="0" y="0">}</tspan></text>
    <rect class="st12" x="333.58" y="225.69" width="39.53" height="28.89"/>
    <rect class="st6" x="388.88" y="225.69" width="39.53" height="28.89"/>
    <rect class="st5" x="444.18" y="225.69" width="39.53" height="28.89"/>
    <rect class="st7" x="268.47" y="325.9" width="72.81" height="28.89"/>
    <rect class="st2" x="356.9" y="325.9" width="66.16" height="28.89"/>
    <rect class="st13" x="225.56" y="376.01" width="98.04" height="28.89"/>
    <rect class="st5" x="340.65" y="376.01" width="93.79" height="28.89"/>
    <rect class="st2" x="438.53" y="325.9" width="45.18" height="28.89"/>
    <rect class="st2" x="293.69" y="275.8" width="91.93" height="28.89"/>
    <rect class="st2" x="401.95" y="275.8" width="113.51" height="28.89"/>
    <text class="st3" transform="translate(603.5 354.79)"><tspan x="0" y="0">esign</tspan></text>
    <text class="st0" transform="translate(620.82 548.66)"><tspan x="0" y="0">in</tspan></text>
    <text class="st0" transform="translate(1039.72 548.66)"><tspan x="0" y="0">code</tspan></text>
  </g>
  <g id="Layer_2">
    <text class="st10" transform="translate(64.69 575.44)"><tspan x="0" y="0">D</tspan></text>
    <text class="st8" transform="translate(203.25 482.14)"><tspan x="0" y="0">}</tspan></text>
    <rect class="st12" x="332.85" y="225.81" width="39.53" height="28.89"/>
    <rect class="st6" x="388.15" y="225.81" width="39.53" height="28.89"/>
    <rect class="st5" x="443.45" y="225.81" width="39.53" height="28.89"/>
    <rect class="st7" x="267.75" y="326.02" width="72.81" height="28.89"/>
    <rect class="st11" x="356.17" y="326.02" width="66.16" height="28.89"/>
    <rect class="st13" x="224.84" y="376.13" width="98.04" height="28.89"/>
    <rect class="st5" x="339.93" y="376.13" width="93.79" height="28.89"/>
    <rect class="st2" x="437.81" y="326.02" width="45.18" height="28.89"/>
    <rect class="st11" x="292.96" y="275.92" width="91.93" height="28.89"/>
    <rect class="st11" x="401.23" y="275.92" width="113.51" height="28.89"/>
    <text class="st9" transform="translate(602.78 354.91)"><tspan x="0" y="0">esign</tspan></text>
    <text class="st1" transform="translate(620.09 548.79)"><tspan x="0" y="0">in</tspan></text>
    <text class="st1" transform="translate(1038.99 548.78)"><tspan x="0" y="0">code</tspan></text>
  </g>
</svg>