<?xml version="1.0" encoding="UTF-8"?>
<svg id="Layer_1" xmlns="http://www.w3.org/2000/svg" version="1.1" viewBox="0 0 643.07 635.63">
  <!-- Generator: Adobe Illustrator 30.1.0, SVG Export Plug-In . SVG Version: 2.1.1 Build 136)  -->
  <defs>
    <style>
      .st0, .st1, .st2 {
        fill: #292b47;
      }

      .st3, .st1, .st4, .st5, .st6, .st7, .st2 {
        isolation: isolate;
      }

      .st3, .st1, .st2 {
        font-family: BrushScriptMT, 'Brush Script MT';
      }

      .st3, .st8 {
        fill: #fff;
      }

      .st3, .st2 {
        font-size: 812.02px;
      }

      .st9 {
        fill: #6f6bf5;
      }

      .st10, .st4 {
        fill: #a077f5;
      }

      .st1 {
        font-size: 422.88px;
      }

      .st4 {
        font-family: Arial-BoldMT, Arial;
        font-size: 78.1px;
        font-weight: 700;
      }

      .st11 {
        fill: #71daa3;
      }

      .st6 {
        font-family: Courier, Courier;
        font-size: 263.84px;
      }

      .st7, .st12 {
        display: none;
      }

      .st13 {
        fill: #6a97f6;
      }

      .st14 {
        fill: #6b68f5;
      }
    </style>
  </defs>
  <g id="Layer_3" class="st12">
    <g class="st7">
      <text class="st2" transform="translate(65.42 575.32)"><tspan x="0" y="0">D</tspan></text>
    </g>
    <g class="st7">
      <text class="st4" transform="translate(203.97 482.02)"><tspan x="0" y="0">}</tspan></text>
    </g>
    <rect class="st13" x="333.58" y="225.69" width="39.53" height="28.89"/>
    <rect class="st9" x="388.88" y="225.69" width="39.53" height="28.89"/>
    <rect class="st11" x="444.18" y="225.69" width="39.53" height="28.89"/>
    <rect class="st10" x="268.47" y="325.9" width="72.81" height="28.89"/>
    <rect class="st0" x="356.9" y="325.9" width="66.16" height="28.89"/>
    <rect class="st14" x="225.56" y="376.01" width="98.04" height="28.89"/>
    <rect class="st11" x="340.65" y="376.01" width="93.79" height="28.89"/>
    <rect class="st0" x="438.53" y="325.9" width="45.18" height="28.89"/>
    <rect class="st0" x="293.69" y="275.8" width="91.93" height="28.89"/>
    <rect class="st0" x="401.95" y="275.8" width="113.51" height="28.89"/>
    <g class="st7">
      <text class="st1" transform="translate(603.5 354.79)"><tspan x="0" y="0">esign</tspan></text>
    </g>
    <g class="st7">
      <text class="st6" transform="translate(620.82 548.66)"><tspan x="0" y="0">in</tspan></text>
    </g>
    <g class="st7">
      <text class="st6" transform="translate(1039.72 548.66)"><tspan x="0" y="0">code</tspan></text>
    </g>
  </g>
  <g id="Layer_2">
    <g class="st5">
      <text class="st3" transform="translate(64.69 575.44)"><tspan x="0" y="0">D</tspan></text>
    </g>
    <g class="st5">
      <text class="st4" transform="translate(203.25 482.14)"><tspan x="0" y="0">}</tspan></text>
    </g>
    <rect class="st13" x="332.85" y="225.81" width="39.53" height="28.89"/>
    <rect class="st9" x="388.15" y="225.81" width="39.53" height="28.89"/>
    <rect class="st11" x="443.45" y="225.81" width="39.53" height="28.89"/>
    <rect class="st10" x="267.75" y="326.02" width="72.81" height="28.89"/>
    <rect class="st8" x="356.17" y="326.02" width="66.16" height="28.89"/>
    <rect class="st14" x="224.84" y="376.13" width="98.04" height="28.89"/>
    <rect class="st11" x="339.93" y="376.13" width="93.79" height="28.89"/>
    <rect class="st0" x="437.81" y="326.02" width="45.18" height="28.89"/>
    <rect class="st8" x="292.96" y="275.92" width="91.93" height="28.89"/>
    <rect class="st8" x="401.23" y="275.92" width="113.51" height="28.89"/>
  </g>
</svg>